# xmcd CD database file
#
# Track frame offsets:
#	150
#	18002
#	40137
#	56152
#	73485
#	87277
#	102647
#	130240
#	142395
#	168332
#	190927
#	214040
#
# Disc length: 3126 seconds
#
# Revision: 1
# Processed by: cddbd v1.5.2PL0 Copyright (c) Steve Scherf et al.
# Submitted via: CDex 1.51
#
DISCID=b70c340c
DTITLE=SARAH AYERS BAND - 3am epiphany
DYEAR=2007
DGENRE=Blues
TTITLE0=Red Dress
TTITLE1=3AM Epiphany
TTITLE2=Get It From Me
TTITLE3=Rider
TTITLE4=Tore Down
TTITLE5=Mockingbird
TTITLE6=Hook Me Up
TTITLE7=At Last
TTITLE8=Son of a Preacher Man
TTITLE9=So Many Dreams
TTITLE10=Alaska
TTITLE11=Cassidy
EXTD=YEAR: 2007
EXTT0=
EXTT1=
EXTT2=
EXTT3=
EXTT4=
EXTT5=
EXTT6=
EXTT7=
EXTT8=
EXTT9=
EXTT10=
EXTT11=
PLAYORDER=
